<?xml version="1.0" standalone="no"?>
<!DOCTYPE svg PUBLIC "-//W3C//DTD SVG 20010904//EN"
 "http://www.w3.org/TR/2001/REC-SVG-20010904/DTD/svg10.dtd">
<svg version="1.0" xmlns="http://www.w3.org/2000/svg"
 width="182.000000pt" height="182.000000pt" viewBox="0 0 182.000000 182.000000"
 preserveAspectRatio="xMidYMid meet">
<metadata>
Created by potrace 1.14, written by Peter Selinger 2001-2017
</metadata>
<g transform="translate(0.000000,182.000000) scale(0.100000,-0.100000)"
fill="#000000" stroke="none">
<path d="M0 930 l0 -890 105 93 c118 106 186 191 233 290 41 89 103 174 148
205 l37 24 23 -30 c31 -39 91 -62 164 -62 l59 0 -2 -82 c-2 -82 -2 -82 28 -97
70 -36 210 6 358 106 43 29 82 53 87 53 5 0 13 8 19 17 8 16 14 16 55 5 26 -6
61 -12 80 -12 42 0 133 -58 213 -136 71 -70 149 -217 140 -264 -3 -15 -3 -38
0 -50 6 -22 7 -23 14 -4 5 13 8 4 9 -31 2 -27 2 -53 1 -57 0 -5 10 -8 24 -8
l25 0 0 910 0 910 -910 0 -910 0 0 -890z"/>
<path d="M267 268 c-27 -39 -49 -80 -50 -90 -1 -11 -11 -25 -22 -30 -26 -14
-44 -39 -45 -60 0 -13 -8 -16 -37 -15 -37 2 -38 1 -38 -35 l0 -38 333 0 c279
0 332 2 332 14 0 8 12 25 28 38 15 12 43 43 62 68 19 25 65 75 102 112 61 62
65 69 47 78 -18 10 -23 6 -20 -13 1 -5 -3 -6 -9 -2 -17 10 -102 -34 -107 -55
-4 -17 -13 -19 -57 -18 -42 2 -59 -3 -96 -27 -25 -16 -47 -33 -50 -37 -3 -3
-19 -10 -35 -14 l-30 -7 19 22 c11 12 21 38 22 57 3 31 1 34 -16 29 -15 -5
-23 0 -32 20 -6 14 -22 28 -35 31 -23 6 -41 -6 -138 -90 -40 -35 -47 -33 -44
13 2 22 -3 46 -10 55 -7 9 -11 22 -8 30 4 11 1 13 -11 9 -15 -6 -15 -5 -3 10
7 9 10 17 5 17 -5 0 -31 -33 -57 -72z m483 -167 c0 -12 -20 -25 -27 -18 -7 7
6 27 18 27 5 0 9 -4 9 -9z"/>
<path d="M1324 150 c-113 -114 -146 -140 -110 -86 22 35 21 49 -4 34 -11 -7
-20 -18 -20 -25 0 -7 -10 -13 -21 -13 -20 0 -21 1 -5 24 32 50 -6 37 -62 -21
l-57 -58 91 -3 92 -3 58 58 c32 32 57 63 56 68 -1 6 23 39 53 73 52 60 61 72
51 72 -3 0 -58 -54 -122 -120z"/>
<path d="M1570 200 c0 -5 7 -7 15 -4 8 4 15 8 15 10 0 2 -7 4 -15 4 -8 0 -15
-4 -15 -10z"/>
<path d="M1492 183 c12 -3 -5 -25 -68 -87 -46 -45 -84 -86 -84 -89 0 -4 15 -7
33 -7 26 0 37 7 56 38 14 20 41 54 60 75 19 20 31 37 26 37 -4 0 2 9 15 20
l23 20 -39 -1 c-21 -1 -32 -3 -22 -6z"/>
<path d="M1610 173 c0 -22 14 -45 26 -43 11 2 32 -64 33 -102 1 -23 6 -28 26
-28 31 0 32 17 5 67 -11 20 -18 39 -15 41 9 9 35 -8 35 -23 0 -25 32 -91 37
-77 9 23 -38 99 -87 141 -55 46 -60 48 -60 24z"/>
<path d="M1420 160 c-8 -5 -10 -10 -5 -10 6 0 17 5 25 10 8 5 11 10 5 10 -5 0
-17 -5 -25 -10z"/>
<path d="M960 140 c0 -6 -6 -10 -12 -8 -13 3 -54 -22 -89 -55 -10 -9 -21 -17
-23 -17 -3 0 -20 -14 -38 -30 l-32 -30 67 0 c51 0 69 4 73 15 4 8 14 15 24 15
10 0 23 7 30 15 7 8 9 15 5 15 -4 0 4 9 18 21 34 26 34 69 0 69 -13 0 -23 -5
-23 -10z"/>
<path d="M1365 140 c-13 -6 -15 -9 -5 -9 8 0 22 4 30 9 18 12 2 12 -25 0z"/>
</g>
</svg>
